<svg xmlns="http://www.w3.org/2000/svg" width="36.94" height="36.94" viewBox="0 0 36.94 36.94"><path d="M36.94 18.47A18.47 18.47 0 1118.47 0a18.47 18.47 0 0118.47 18.47z" fill="#0093ff"/><path d="M13.65 17.32a4.57 4.57 0 114.56-4.57 4.58 4.58 0 01-4.56 4.57zm0-6.63a2.07 2.07 0 102.06 2.06 2.07 2.07 0 00-2.06-2.06zm10.49 17.96a4.57 4.57 0 114.57-4.57 4.57 4.57 0 01-4.57 4.57zm0-6.63a2.07 2.07 0 102.07 2.06A2.06 2.06 0 0024.14 22zM12 27.55a1.24 1.24 0 01-.92-2.09l14.63-15.9a1.25 1.25 0 111.84 1.69l-14.61 15.9a1.25 1.25 0 01-.94.4z" fill="#fff"/></svg>