<svg version="1.1" id="Слой_1" xmlns="http://www.w3.org/2000/svg" x="0" y="0" width="36.9" height="36.9" viewBox="0 0 36.9 36.9" xml:space="preserve"><path d="M36.9 18.5c0 10.2-8.3 18.5-18.5 18.5C8.3 36.9 0 28.7 0 18.5S8.3 0 18.5 0s18.4 8.3 18.4 18.5z" fill="#5b5b5b"/><path d="M14.4 19l-6.8.2m2.7 2.7l-2.7-2.7 2.7-2.7M24 19.2h6.3m-2.7-2.7l2.7 2.7-2.7 2.7m-8.5 1.8l-.2 6.6m2.6-2.6l-2.6 2.6-2.7-2.7m2.7-13.1V7.6m-2.7 2.8l2.7-2.8 2.6 2.6" fill="none" stroke="#fff" stroke-width="2" stroke-linecap="round" stroke-linejoin="round" stroke-miterlimit="10"/></svg>