<svg xmlns="http://www.w3.org/2000/svg" width="36.94" height="36.94" viewBox="0 0 36.94 36.94"><path d="M0 18.47a18.47 18.47 0 1118.47 18.47A18.47 18.47 0 010 18.47z" fill="#dbdbdb"/><path d="M29.05 9.72H9.14A3.13 3.13 0 006 12.84v11.25a3.13 3.13 0 003.13 3.13h19.92a3.13 3.13 0 003.13-3.13V12.84a3.13 3.13 0 00-3.13-3.12zm1.4 14.37a1.4 1.4 0 01-1.4 1.4H9.14a1.4 1.4 0 01-1.4-1.4v-7.53h22.71v7.53zm0-10H7.74v-1.25a1.4 1.4 0 011.4-1.39h19.91a1.4 1.4 0 011.4 1.39v1.25z" fill="#5b5b5b"/><path d="M9.89 23.89h4.74a.31.31 0 00.31-.31v-.94a.3.3 0 00-.31-.3H9.89a.3.3 0 00-.31.3v.94a.31.31 0 00.31.31zm15.36 0h1.41a1.47 1.47 0 001.47-1.48V21a1.47 1.47 0 00-1.47-1.47h-1.41A1.47 1.47 0 0023.78 21v1.41a1.47 1.47 0 001.47 1.48z" fill="#5b5b5b"/></svg>