<svg xmlns="http://www.w3.org/2000/svg" width="36.94" height="36.94" viewBox="0 0 36.94 36.94"><path d="M0 18.47a18.47 18.47 0 1118.47 18.47A18.47 18.47 0 010 18.47z" fill="#0030b7"/><path d="M12.77 23.61H9.2a.71.71 0 01-.71-.71V10.07a.71.71 0 01.71-.72h19.26a.71.71 0 01.71.72V22.9a.71.71 0 01-.71.71H16.33" fill="#fff"/><path d="M25.25 15.5H12.41a1.5 1.5 0 010-3h12.84a1.5 1.5 0 010 3zM21 20.84h-8.59a1.5 1.5 0 010-3H21a1.5 1.5 0 010 3z" fill="#0030b7"/><path fill="#fff" d="M16.33 23.61l-3.56 4.28v-4.28"/></svg>