<svg version="1.1" id="Слой_1" xmlns="http://www.w3.org/2000/svg" x="0" y="0" width="189.7" height="38.5" viewBox="0 0 189.7 38.5" xml:space="preserve"><path d="M12.2 2.8H10c-.7 0-1.3.1-2 .4-.5.3-1.1.7-1.6 1.3-.5.6-.9 1.4-1.2 2.4-.3 1-.4 2.1-.4 3.5 0 1.3.2 2.4.5 3.3.3.9.7 1.7 1.3 2.3.5.6 1.1 1 1.8 1.3.7.3 1.4.4 2.1.4h1.8V2.8h-.1zM3.8 32.4H0l6.8-12.6c-2-1-3.4-2.2-4.3-3.8-.9-1.6-1.3-3.5-1.3-5.6 0-1.7.2-3.2.7-4.5.5-1.3 1.1-2.4 1.9-3.3.8-.9 1.8-1.5 2.8-2C7.8.2 9 0 10.2 0h5.4v32.4h-3.3v-12H10l-6.2 12z" fill="#da0100"/><path d="M141.7 12.1c-1.9 0-3.5 2-4.4 4.3v11.8c.8 1.7 2 2.6 3.9 2.6 2.7 0 4.4-3.2 4.4-9.8 0-5.6-1.5-8.9-3.9-8.9zm-20.3 14c0 3 1.3 4.7 3.3 4.7 2 0 3.4-1.9 4.1-4.1v-5.8h-2.3c-3.4-.1-5.1 1.5-5.1 5.2zm-61.5-8c-.1-1.7-.4-2.9-.8-3.8-.4-.9-1-1.4-1.6-1.4-.5 0-.9.2-1.3.5s-.7.8-.9 1.4c-.3.6-.5 1.3-.6 2.1-.1.8-.2 1.7-.3 2.6h5.5v-1.4zM170.5 12c-2.2 0-4 2.8-4.2 8.1h7.7c.3-5.6-1.4-8.1-3.5-8.1z" fill="none"/><path d="M178 10.8v1.6h4.9v19.5h2V12.4h4.8v-1.6zm-2.8 17.6zM78.6 10.7H75l-4.6 9.4-.4.4v-9.8h-3.3v21.6H70V21.2l.4.5 5.2 10.6h3.7l-6-11.9zm-21-.5c-1.2 0-2.2.3-3 1-.8.7-1.5 1.6-2.1 2.7-.5 1.1-1 2.4-1.2 3.9-.3 1.5-.4 3-.4 4.6 0 3.3.7 5.9 2 7.7 1.3 1.8 3.1 2.7 5.2 2.7 1.1 0 2-.1 2.9-.4.9-.3 1.6-.6 2.3-1l-.4-2.4c-.4.2-.9.3-1.6.5-.7.2-1.4.3-2 .3-1.7 0-3-.7-3.8-2-.8-1.3-1.2-3.1-1.2-5.5h9v-1.8c0-3.4-.5-6-1.6-7.7-1-1.8-2.4-2.6-4.1-2.6zm2.3 9.3h-5.5c.1-1 .2-1.8.3-2.6.1-.8.3-1.5.6-2.1.2-.6.6-1.1.9-1.4.4-.3.8-.5 1.3-.5.7 0 1.2.5 1.6 1.4.4.9.7 2.2.8 3.8v1.4zm-31.6-.3h-5v-8.5h-3.4v21.6h3.4V22h5v10.3h3.3V10.7h-3.3zm18.8-8.5h-9.4v1.8c0 1.3 0 2.7-.1 4.2 0 1.5-.2 2.9-.4 4.4-.2 1.5-.5 3-.9 4.4-.4 1.5-.9 2.8-1.6 4.1h-1.3v7h3v-4.2h9.3v4.2h3v-7H47V10.7zm-3.3 18.9h-6c.6-.9 1-2 1.4-3.3.4-1.3.7-2.6.9-4 .2-1.4.4-2.9.5-4.3.1-1.5.1-2.9.1-4.2v-.4h3.2v16.2zM142 10.4c-2.3 0-3.9 1.9-4.8 3.9l-.2-3.5h-1.7v27.7h2v-8c.8 1 2.2 1.8 3.8 1.8 3.9 0 6.5-3.8 6.5-11.6 0-6.1-2.1-10.3-5.6-10.3zm-.8 20.3c-1.9 0-3.1-.8-3.9-2.6V16.4c.9-2.3 2.5-4.3 4.4-4.3 2.4 0 3.9 3.3 3.9 8.8 0 6.7-1.8 9.8-4.4 9.8zm-10.4-14.2c0-4.2-2-6.1-5.4-6.1-2.4 0-4.1 1-5 2.1l.5 1.9c1-1.5 2.6-2.3 4.4-2.3 2.3 0 3.5 1.4 3.5 4.6v2.6h-2.3c-4.6 0-7 2.3-7 6.9 0 3.9 2 6.1 4.8 6.1 2.1 0 3.6-1.3 4.6-3.3.1 1.5.3 2.3.5 2.8h1.8c-.3-.8-.5-2.4-.5-3.9V16.5zm-2 10.1c-.8 2.3-2.1 4.1-4.1 4.1-2 0-3.3-1.7-3.3-4.7 0-3.7 1.7-5.3 5.2-5.3h2.3v5.9zm33.5-15.8h-1.9l-7.1 9.9v-9.9h-2v21.1h2V21l7.3 10.9h2.2l-7.4-11.3zm-53.9 10.3c-.2.8-.5 2.3-.7 3.5h-.1c-.1-1.1-.4-2.7-.6-3.5L101.9 2h-2.4v30h1.8V11c0-1.5 0-3-.1-4.4h.1c.3 1.4.6 2.7 1 4.3l4.4 16.5h1.6l4.5-16.7c.3-1.3.6-2.5 1-4.1h.2c-.1 1.5-.2 3-.2 4.4v21h2V2h-2.3l-5.1 19.1zm62.1-10.7c-3.6 0-6.2 4.1-6.2 11s2.1 11 6.5 11c3.4 0 4.9-2.4 4.9-2.4l-.6-1.6s-1.5 2.3-4.3 2.3c-3.1 0-4.6-3.1-4.7-8.9h9.5c.9-7.6-1.5-11.4-5.1-11.4zm3.5 9.7h-7.7c.2-5.3 2-8.1 4.2-8.1 2.1 0 3.8 2.5 3.5 8.1zm-83.7 9.4c-.6.2-1.3.3-1.9.3-1.6 0-2.8-.7-3.6-2.2-.8-1.5-1.2-3.5-1.2-6 0-1.1.1-2.2.3-3.2.2-1.1.4-2 .7-2.8.3-.8.7-1.5 1.2-2s1-.8 1.6-.8c.5 0 1 .2 1.5.5s.9.7 1.3 1.1l1.7-2.9c-.6-.4-1.3-.8-2-1-.7-.3-1.6-.4-2.5-.4-1 0-2 .3-2.9.9-.9.6-1.7 1.4-2.3 2.5-.6 1.1-1.2 2.4-1.5 3.9-.4 1.5-.6 3.2-.6 5 0 3.4.7 5.9 2 7.7 1.3 1.8 3.1 2.7 5.2 2.7 1 0 1.9-.1 2.7-.4.8-.3 1.5-.6 2.2-1l-.3-2.4c-.4.1-.9.3-1.6.5z" fill="#363636"/></svg>